{
	"images":[{
		"uri":"data:image/jpeg;base64,"
	}],
	"scenes":[{
		"nodes":[0]
	}],
	"asset":{
		"generator":"Created using the official Cinema 4D glTF Exporter 1.000x284978",
		"version":"2.0"
	},
	"bufferViews":[{
		"buffer":0,
		"byteOffset":0,
		"byteLength":40596,
		"target":34963
	},
	{
		"buffer":0,
		"byteOffset":40596,
		"byteLength":116736,
		"target":34962,
		"byteStride":32
	},
	{
		"buffer":1,
		"byteOffset":0,
		"byteLength":102252,
		"target":34963
	},
	{
		"buffer":1,
		"byteOffset":102252,
		"byteLength":294144,
		"target":34962,
		"byteStride":32
	}],
	"nodes":[{
		"name":"Disc",
		"translation":[-5.725415229797363,
		-6.1609954833984379,
		-29.328365325927736],
		"rotation":[0.0,
		0.0,
		0.0,
		-1.0],
		"scale":[1.0,
		1.0,
		1.0],
		"children":[1,
		2]
	},
	{
		"name":"Disc-Material #25",
		"mesh":0
	},
	{
		"name":"Disc-Material #26",
		"mesh":1
	}],
	"materials":[{
		"pbrMetallicRoughness":{
			"baseColorTexture":{
				"index":0
			},
			"baseColorFactor":[1.0,
			1.0,
			1.0,
			1.0],
			"metallicFactor":0.0,
			"roughnessFactor":0.2980615760929028
		},
		"emissiveFactor":[0.0,
		0.0,
		0.0],
		"alphaMode":"OPAQUE",
		"doubleSided":false,
		"name":"Material #25"
	},
	{
		"pbrMetallicRoughness":{
			"baseColorFactor":[0.92,
			0.8043866666666667,
			0.6808000000000001,
			1.0],
			"metallicFactor":0.0,
			"roughnessFactor":0.2980615760929028
		},
		"emissiveFactor":[0.0,
		0.0,
		0.0],
		"alphaMode":"OPAQUE",
		"doubleSided":false,
		"name":"Material #26"
	}],
	"meshes":[{
		"name":"Disc-Material #25",
		"primitives":[{
			"attributes":{
				"POSITION":1,
				"NORMAL":2,
				"TEXCOORD_0":3
			},
			"indices":0,
			"material":0
		}]
	},
	{
		"name":"Disc-Material #26",
		"primitives":[{
			"attributes":{
				"POSITION":5,
				"NORMAL":6,
				"TEXCOORD_0":7
			},
			"indices":4,
			"material":1
		}]
	}],
	"accessors":[{
		"count":20298,
		"bufferView":0,
		"type":"SCALAR",
		"componentType":5123,
		"byteOffset":0,
		"min":[0],
		"max":[3647]
	},
	{
		"count":3648,
		"bufferView":1,
		"type":"VEC3",
		"componentType":5126,
		"byteOffset":0,
		"min":[-99.3995361328125,
		2.532238006591797,
		-99.3995361328125],
		"max":[106.72219848632813,
		247.7320556640625,
		99.3995361328125]
	},
	{
		"count":3648,
		"bufferView":1,
		"type":"VEC3",
		"componentType":5126,
		"byteOffset":12,
		"min":[-1.0,
		-0.9309688210487366,
		-1.0],
		"max":[1.0,
		0.9625625610351563,
		1.0]
	},
	{
		"count":3648,
		"bufferView":1,
		"type":"VEC2",
		"componentType":5126,
		"byteOffset":24,
		"min":[-0.006083786487579346,
		0.0023241639137268068],
		"max":[0.9993590116500855,
		0.9736889600753784]
	},
	{
		"count":51126,
		"bufferView":2,
		"type":"SCALAR",
		"componentType":5123,
		"byteOffset":0,
		"min":[0],
		"max":[9191]
	},
	{
		"count":9192,
		"bufferView":3,
		"type":"VEC3",
		"componentType":5126,
		"byteOffset":0,
		"min":[-95.51673889160156,
		0.0,
		-95.5167465209961],
		"max":[186.89862060546876,
		247.7320556640625,
		95.5167465209961]
	},
	{
		"count":9192,
		"bufferView":3,
		"type":"VEC3",
		"componentType":5126,
		"byteOffset":12,
		"min":[-0.9999688267707825,
		-1.0,
		-1.0],
		"max":[1.0,
		1.0,
		1.0]
	},
	{
		"count":9192,
		"bufferView":3,
		"type":"VEC2",
		"componentType":5126,
		"byteOffset":24,
		"min":[-0.05279439687728882,
		0.0023241639137268068],
		"max":[0.9999908208847046,
		0.9837205410003662]
	}],
	"buffers":[{
		"uri":"data:application/octet-stream;base64,",
		"byteLength":157332
	},
	{
		"uri":"data:application/octet-stream;base64,",
		"byteLength":396396
	}],
	"samplers":[{
		"magFilter":9729,
		"minFilter":9729,
		"wrapS":10497,
		"wrapT":10497
	}],
	"textures":[{
		"sampler":0,
		"source":0
	}]
}